<svg width="96" height="32" viewBox="0 0 96 32" fill="none" xmlns="http://www.w3.org/2000/svg">
<g clip-path="url(#clip0_710_1815)">
<path d="M22.0358 31.9188C23.5206 31.9188 24.7243 30.6964 24.7243 29.1889C24.7243 27.6813 23.5206 26.4591 22.0358 26.4591C20.551 26.4591 19.3474 27.6813 19.3474 29.1889C19.3474 30.6964 20.551 31.9188 22.0358 31.9188Z" fill="#0FCBD4"/>
<path d="M2.97182 31.9188C4.45667 31.9188 5.66033 30.6964 5.66033 29.1889C5.66033 27.6813 4.45667 26.4591 2.97182 26.4591C1.48699 26.4591 0.283295 27.6813 0.283295 29.1889C0.283295 30.6964 1.48699 31.9188 2.97182 31.9188Z" fill="#0FCBD4"/>
<path fill-rule="evenodd" clip-rule="evenodd" d="M38.0461 17.7304C38.0461 16.4077 38.2771 15.2128 38.7395 14.1459C39.2018 13.0578 39.8323 12.1297 40.631 11.3615C41.4296 10.5934 42.3648 9.99602 43.4366 9.5693C44.5294 9.14258 45.6958 8.9292 46.9358 8.9292C48.1757 8.9292 49.3317 9.14258 50.4035 9.5693C51.4963 9.99602 52.4421 10.5934 53.2406 11.3615C54.0394 12.1297 54.6698 13.0578 55.1322 14.1459C55.5946 15.2128 55.8256 16.4077 55.8256 17.7304C55.8256 19.032 55.5946 20.2267 55.1322 21.3149C54.6698 22.3818 54.0394 23.3098 53.2406 24.0994C52.4421 24.8675 51.4963 25.4648 50.4035 25.8917C49.3317 26.3182 48.1757 26.5317 46.9358 26.5317C45.6958 26.5317 44.5294 26.3182 43.4366 25.8917C42.3648 25.4648 41.4296 24.8675 40.631 24.0994C39.8323 23.3098 39.2018 22.3818 38.7395 21.3149C38.2771 20.2267 38.0461 19.032 38.0461 17.7304ZM46.9358 22.8512C47.6083 22.8512 48.2389 22.7338 48.8272 22.499C49.4158 22.243 49.9202 21.891 50.3405 21.4429C50.7818 20.9949 51.1285 20.4614 51.3808 19.8427C51.633 19.2027 51.759 18.4985 51.759 17.7304C51.759 16.9624 51.6434 16.2688 51.4122 15.6501C51.1811 15.01 47.3771 18.1785 46.9358 17.7304C46.5155 17.2824 49.4789 13.2285 48.8902 12.9938C48.3019 12.7377 47.6504 12.6097 46.9358 12.6097C46.2632 12.6097 45.6328 12.7377 45.0445 12.9938C44.4768 13.2285 43.9725 13.5698 43.5312 14.0179C43.1109 14.466 42.7746 15.01 42.5224 15.6501C42.2702 16.2688 42.1442 16.9624 42.1442 17.7304C42.1442 18.4985 42.2702 19.2027 42.5224 19.8427C42.7746 20.4614 43.1109 20.9949 43.5312 21.4429C43.9725 21.891 44.4768 22.243 45.0445 22.499C45.6328 22.7338 46.2632 22.8512 46.9358 22.8512Z" fill="#0FCBD4"/>
<path d="M57.8983 0.86412V26.0836H61.3973L65.2749 20.4828L69.1208 26.0836H73.944L67.7023 16.9623L72.9669 9.37728H68.175L61.9333 18.5946V0H61.5866L57.8983 0.86412Z" fill="#0FD47B"/>
<path d="M0 13.7939C0 11.895 0.325752 10.1667 0.977254 8.60919C1.62877 7.05165 2.51144 5.71814 3.6253 4.60865C4.76018 3.47783 6.08419 2.60303 7.59738 1.98428C9.13157 1.36553 10.7708 1.05615 12.5152 1.05615C14.2596 1.05615 15.8883 1.36553 17.4014 1.98428C18.9357 2.60303 20.2597 3.47783 21.3736 4.60865C21.8536 5.078 22.2904 5.58743 22.684 6.13697L22.8019 6.29958C21.5674 7.62726 20.8394 8.0793 19.3006 8.75559L19.065 8.39687L19.0646 8.39703C18.828 8.05833 18.5678 7.74499 18.284 7.45704C17.5485 6.68894 16.6869 6.10217 15.6991 5.6968C14.7114 5.27008 13.65 5.05672 12.5152 5.05672C11.3803 5.05672 10.319 5.27008 9.3312 5.6968C8.34346 6.10217 7.48178 6.68894 6.74622 7.45704C6.01064 8.20381 5.43269 9.12127 5.01237 10.2094C4.59205 11.2762 4.38187 12.4711 4.38187 13.7939C4.38187 15.1168 4.59205 16.3223 5.01237 17.4104C5.43269 18.4773 6.01064 19.3947 6.74622 20.1629C7.48178 20.9096 8.34346 21.4964 9.3312 21.9231C10.319 22.3285 11.3803 22.5311 12.5152 22.5311C13.65 22.5311 14.7114 22.3285 15.6991 21.9231C16.6869 21.4964 17.5485 20.9096 18.284 20.1629C19.0197 19.3947 19.5976 18.4773 20.0179 17.4104C20.067 17.2832 20.1134 17.1546 20.1566 17.0243H8.46485C7.94955 15.2837 7.91824 14.2491 8.11074 12.5665H19.1558L19.1589 12.5808H24.9843C25.0149 12.9771 25.0304 13.3815 25.0304 13.7939C25.0304 15.6716 24.7046 17.3997 24.0531 18.9786C23.4016 20.5362 22.5083 21.8804 21.3736 23.0112C20.2597 24.1207 18.9357 24.9847 17.4014 25.6036C15.8883 26.2223 14.2596 26.5317 12.5152 26.5317C10.7708 26.5317 9.13157 26.2223 7.59738 25.6036C6.08419 24.9847 4.76018 24.1207 3.6253 23.0112C2.51144 21.8804 1.62877 20.5362 0.977254 18.9786C0.325752 17.3997 0 15.6716 0 13.7939Z" fill="#0FD47B"/>
<path d="M31.1379 9.37725H27.4181V26.0835H31.4531V15.2661C31.9575 14.6047 32.6301 14.0499 33.4707 13.6018C34.3325 13.1538 35.2992 12.9298 36.3709 12.9298C36.6862 12.9298 36.9384 12.9404 37.1277 12.9618C37.3167 12.9618 37.5479 12.9831 37.8211 13.0258L38.2309 9.15323C37.7054 9.00389 37.0539 8.9292 36.2765 8.9292C35.4778 8.9292 34.6475 9.09989 33.7859 9.44128C32.9243 9.78266 32.1256 10.3267 31.3901 11.0735L31.1379 9.37725Z" fill="#0FD47B"/>
<path d="M78.4408 25.8914C79.4915 26.3183 80.616 26.5317 81.8138 26.5317C83.5371 26.5317 85.0818 26.137 86.448 25.3476C87.6006 24.6632 88.5064 23.6905 89.1653 22.4289L89.184 22.3936C87.7912 21.4143 87.0282 21.1567 85.4799 20.8805C85.4047 21.1365 85.343 21.2667 85.2739 21.3563C85.197 21.4548 85.1154 21.5477 85.0295 21.6351C84.7351 21.9122 84.4093 22.1471 84.052 22.3391C83.6949 22.5098 83.3271 22.6378 82.9487 22.7231C82.5704 22.8083 82.2026 22.8511 81.8454 22.8511C81.2147 22.8511 80.616 22.7338 80.0485 22.4991C79.5021 22.2431 79.0082 21.8909 78.5667 21.4429C78.1466 20.9947 77.8102 20.4615 77.5581 19.8427C77.3269 19.2026 77.2112 18.4984 77.2112 17.7304C77.2112 16.9623 77.3269 16.2688 77.5581 15.6501C77.8102 15.01 78.1466 14.4659 78.5667 14.0179C79.0082 13.5698 79.5021 13.2284 80.0485 12.9937C80.616 12.759 81.2147 12.6417 81.8454 12.6417C82.2026 12.6417 82.5704 12.6844 82.9487 12.7697C83.3271 12.8337 83.6949 12.9617 84.052 13.1538C84.4093 13.3245 84.7351 13.5592 85.0295 13.8579C85.1653 13.986 85.2899 14.13 85.4034 14.2899C85.5133 14.4482 85.5683 14.5446 85.66 14.7233C87.1538 14.3215 87.8395 14.03 89.117 12.9418C88.4626 11.7275 87.5726 10.7954 86.448 10.1454C85.0818 9.35592 83.5371 8.96118 81.8138 8.96118C80.616 8.96118 79.4915 9.17456 78.4408 9.60128C77.3899 10.028 76.4653 10.6254 75.6666 11.3935C74.889 12.1616 74.269 13.0898 73.8066 14.1779C73.3443 15.2447 73.1131 16.4288 73.1131 17.7304C73.1131 19.032 73.3443 20.2267 73.8066 21.3149C74.269 22.3818 74.889 23.3098 75.6666 24.0992C76.4653 24.8674 77.3899 25.4648 78.4408 25.8914Z" fill="#0FD47B"/>
<path d="M91.4291 2.14432C90.9035 2.63507 90.6408 3.27514 90.6408 4.0646C90.6408 4.85404 90.9035 5.49412 91.4291 5.98486C91.9544 6.47559 92.5848 6.72096 93.3205 6.72096C94.056 6.72096 94.6866 6.47559 95.2118 5.98486C95.7374 5.49412 96 4.85404 96 4.0646C96 3.27514 95.7374 2.63507 95.2118 2.14432C94.6866 1.63226 94.056 1.37622 93.3205 1.37622C92.5848 1.37622 91.9544 1.63226 91.4291 2.14432Z" fill="#0FD47B"/>
<path d="M91.3029 9.37732H95.3379V26.0836H91.3029V9.37732Z" fill="#0FD47B"/>
</g>
<defs>
<clipPath id="clip0_710_1815">
<rect width="96" height="32" fill="white"/>
</clipPath>
</defs>
</svg>
