<svg width="100" height="100" viewBox="0 0 100 100" fill="none" xmlns="http://www.w3.org/2000/svg">
<rect x="0.5" y="0.5" width="99" height="99" rx="19.5" fill="white"/>
<rect x="0.5" y="0.5" width="99" height="99" rx="19.5" stroke="#0FD47B"/>
<g clip-path="url(#clip0_662_1953)">
<mask id="mask0_662_1953" style="mask-type:luminance" maskUnits="userSpaceOnUse" x="28" y="23" width="44" height="55">
<path d="M72 23H28V78H72V23Z" fill="white"/>
</mask>
<g mask="url(#mask0_662_1953)">
<path fill-rule="evenodd" clip-rule="evenodd" d="M41.6215 66.7401C44.3036 67.8428 47.1391 68.394 50.1277 68.394C53.2697 68.394 56.1434 67.8428 58.7489 66.7401C61.3928 65.6378 63.6725 64.0978 65.5884 62.1209C67.5043 60.144 68.9985 57.7679 70.0713 54.9925C71.1442 52.1792 71.6807 49.0997 71.6807 45.754V44.2143H51.4432H51.3922H39.5764C39.4656 45.5641 39.4746 46.7246 39.6219 47.8773C39.7593 48.9532 40.0191 50.0386 40.429 51.2794H51.3922V51.2857H62.9445C62.0633 54.4032 60.5115 56.8554 58.2891 58.6423C56.1051 60.3911 53.3846 61.2655 50.1277 61.2655C48.2502 61.2655 46.4493 60.9044 44.7251 60.182C43.0009 59.4216 41.4874 58.3571 40.1846 56.9885C38.9201 55.6198 37.9048 53.985 37.1385 52.0841C36.3722 50.1452 35.989 47.9971 35.989 45.64C35.989 43.2829 36.3722 41.1538 37.1385 39.2529C37.9048 37.3519 38.9201 35.7362 40.1846 34.4055C41.4874 33.0369 43.0009 31.9914 44.7251 31.269C46.4493 30.5086 48.2693 30.1285 50.1852 30.1285C51.3347 30.1285 52.465 30.2615 53.5762 30.5276C54.7257 30.7558 55.7985 31.117 56.7948 31.6112C57.791 32.1054 58.6915 32.7137 59.4961 33.436C60.036 33.8986 60.5051 34.4002 60.9036 34.9408C62.3267 34.6893 63.4896 34.3727 64.6002 33.9175C65.7104 33.4623 66.7985 32.856 68.0611 31.9987C66.4895 29.4701 64.3434 27.421 61.6227 25.8514C58.3275 23.9505 54.4958 23 50.1277 23C47.1391 23 44.3036 23.5513 41.6215 24.6538C38.9393 25.7563 36.5829 27.3151 34.5521 29.3301C32.5596 31.307 30.9695 33.6831 29.7817 36.4585C28.5939 39.2339 28 42.2944 28 45.64C28 49.0236 28.5939 52.1221 29.7817 54.9355C30.9695 57.7108 32.5596 60.106 34.5521 62.1209C36.5829 64.0978 38.9393 65.6378 41.6215 66.7401Z" fill="#0FD47B"/>
<path d="M67.1326 77.984C69.8034 77.984 71.9687 75.836 71.9687 73.1859C71.9687 70.5358 69.8034 68.3877 67.1326 68.3877C64.4619 68.3877 62.2969 70.5358 62.2969 73.1859C62.2969 75.836 64.4619 77.984 67.1326 77.984Z" fill="#0FCBD4"/>
<path d="M32.8422 77.984C35.513 77.984 37.678 75.836 37.678 73.1859C37.678 70.5358 35.513 68.3877 32.8422 68.3877C30.1714 68.3877 28.0063 70.5358 28.0063 73.1859C28.0063 75.836 30.1714 77.984 32.8422 77.984Z" fill="#0FCBD4"/>
</g>
</g>
<defs>
<clipPath id="clip0_662_1953">
<rect width="44" height="55" fill="white" transform="translate(28 23)"/>
</clipPath>
</defs>
</svg>
